# xmcd CD database file
#
# Track frame offsets:
#	150
#	24537
#	76427
#	144565
#	226350
#	294352
#
# Disc length: 4283 seconds
#
# Revision: 2
# Processed by: cddbd v1.5.2PL0 Copyright (c) Steve Scherf et al.
# Submitted via: CDex 1.70beta3
#
DISCID=4a10b906
DTITLE=Various Artist - やすらぎα波
DYEAR=2005
DGENRE=Relaxing
TTITLE0=大いなる生命～海
TTITLE1=新生の息吹き
TTITLE2=木漏れ陽の中で
TTITLE3=イルカ伝説
TTITLE4=虹の回廊
TTITLE5=大いなる生命～宇宙
EXTD=YEAR: 2005
EXTT0=
EXTT1=
EXTT2=
EXTT3=
EXTT4=
EXTT5=
PLAYORDER=
